<mxfile host="app.diagrams.net" modified="2024-06-10T01:50:54.020Z" agent="Mozilla/5.0 (Macintosh; Intel Mac OS X 10_15_7) AppleWebKit/537.36 (KHTML, like Gecko) Chrome/125.0.0.0 Safari/537.36" etag="VD-H3G54tBtxyS5QNjDI" version="24.5.2" type="github">
  <diagram name="Page-1" id="vMLTytokWvOrCjo9vSvv">
    <mxGraphModel dx="924" dy="1076" grid="1" gridSize="10" guides="1" tooltips="1" connect="1" arrows="1" fold="1" page="1" pageScale="1" pageWidth="2339" pageHeight="3300" math="0" shadow="0">
      <root>
        <mxCell id="0" />
        <mxCell id="1" parent="0" />
        <mxCell id="kaPdP8XmIXaBj53WBzwW-1" value="Men&#39;s Preference Lists" style="shape=table;startSize=30;container=1;collapsible=0;childLayout=tableLayout;resizeLast=0;resizeLastRow=0;fontStyle=0;fontSize=10;" vertex="1" parent="1">
          <mxGeometry x="40" y="40" width="210" height="180.5" as="geometry" />
        </mxCell>
        <mxCell id="kaPdP8XmIXaBj53WBzwW-2" value="" style="shape=tableRow;horizontal=0;startSize=30;swimlaneHead=0;swimlaneBody=0;strokeColor=inherit;top=0;left=0;bottom=0;right=0;collapsible=0;dropTarget=0;fillColor=none;points=[[0,0.5],[1,0.5]];portConstraint=eastwest;fontSize=10;" vertex="1" parent="kaPdP8XmIXaBj53WBzwW-1">
          <mxGeometry y="30" width="210" height="31" as="geometry" />
        </mxCell>
        <mxCell id="kaPdP8XmIXaBj53WBzwW-3" value="Rank1" style="shape=partialRectangle;html=1;whiteSpace=wrap;connectable=0;strokeColor=inherit;overflow=hidden;fillColor=none;top=0;left=0;bottom=0;right=0;pointerEvents=1;fontSize=10;" vertex="1" parent="kaPdP8XmIXaBj53WBzwW-2">
          <mxGeometry x="30" width="60" height="31" as="geometry">
            <mxRectangle width="60" height="31" as="alternateBounds" />
          </mxGeometry>
        </mxCell>
        <mxCell id="kaPdP8XmIXaBj53WBzwW-4" value="Rank2" style="shape=partialRectangle;html=1;whiteSpace=wrap;connectable=0;strokeColor=inherit;overflow=hidden;fillColor=none;top=0;left=0;bottom=0;right=0;pointerEvents=1;fontSize=10;" vertex="1" parent="kaPdP8XmIXaBj53WBzwW-2">
          <mxGeometry x="90" width="60" height="31" as="geometry">
            <mxRectangle width="60" height="31" as="alternateBounds" />
          </mxGeometry>
        </mxCell>
        <mxCell id="kaPdP8XmIXaBj53WBzwW-5" value="Rank3" style="shape=partialRectangle;html=1;whiteSpace=wrap;connectable=0;strokeColor=inherit;overflow=hidden;fillColor=none;top=0;left=0;bottom=0;right=0;pointerEvents=1;strokeWidth=1;resizeWidth=1;resizeHeight=1;fontSize=10;" vertex="1" parent="kaPdP8XmIXaBj53WBzwW-2">
          <mxGeometry x="150" width="60" height="31" as="geometry">
            <mxRectangle width="60" height="31" as="alternateBounds" />
          </mxGeometry>
        </mxCell>
        <mxCell id="kaPdP8XmIXaBj53WBzwW-6" value="M1" style="shape=tableRow;horizontal=0;startSize=30;swimlaneHead=0;swimlaneBody=0;strokeColor=inherit;top=0;left=0;bottom=0;right=0;collapsible=0;dropTarget=0;fillColor=none;points=[[0,0.5],[1,0.5]];portConstraint=eastwest;fontSize=10;" vertex="1" parent="kaPdP8XmIXaBj53WBzwW-1">
          <mxGeometry y="61" width="210" height="40" as="geometry" />
        </mxCell>
        <mxCell id="kaPdP8XmIXaBj53WBzwW-7" value="W2" style="shape=partialRectangle;html=1;whiteSpace=wrap;connectable=0;overflow=hidden;top=0;left=0;bottom=0;right=0;pointerEvents=1;strokeColor=default;fillColor=none;fontSize=10;" vertex="1" parent="kaPdP8XmIXaBj53WBzwW-6">
          <mxGeometry x="30" width="60" height="40" as="geometry">
            <mxRectangle width="60" height="40" as="alternateBounds" />
          </mxGeometry>
        </mxCell>
        <mxCell id="kaPdP8XmIXaBj53WBzwW-8" value="W1" style="shape=partialRectangle;html=1;whiteSpace=wrap;connectable=0;overflow=hidden;top=0;left=0;bottom=0;right=0;pointerEvents=1;fillColor=none;labelBackgroundColor=none;labelBorderColor=none;strokeColor=default;shadow=0;resizable=1;resizeWidth=0;metaEdit=0;backgroundOutline=0;fontSize=10;" vertex="1" parent="kaPdP8XmIXaBj53WBzwW-6">
          <mxGeometry x="90" width="60" height="40" as="geometry">
            <mxRectangle width="60" height="40" as="alternateBounds" />
          </mxGeometry>
        </mxCell>
        <mxCell id="kaPdP8XmIXaBj53WBzwW-9" value="W3" style="shape=partialRectangle;html=1;whiteSpace=wrap;connectable=0;overflow=hidden;top=0;left=0;bottom=0;right=0;pointerEvents=1;fillColor=none;fontSize=10;" vertex="1" parent="kaPdP8XmIXaBj53WBzwW-6">
          <mxGeometry x="150" width="60" height="40" as="geometry">
            <mxRectangle width="60" height="40" as="alternateBounds" />
          </mxGeometry>
        </mxCell>
        <mxCell id="kaPdP8XmIXaBj53WBzwW-10" value="M2" style="shape=tableRow;horizontal=0;startSize=30;swimlaneHead=0;swimlaneBody=0;strokeColor=inherit;top=0;left=0;bottom=0;right=0;collapsible=0;dropTarget=0;fillColor=none;points=[[0,0.5],[1,0.5]];portConstraint=eastwest;fontSize=10;" vertex="1" parent="kaPdP8XmIXaBj53WBzwW-1">
          <mxGeometry y="101" width="210" height="40" as="geometry" />
        </mxCell>
        <mxCell id="kaPdP8XmIXaBj53WBzwW-11" value="W2" style="shape=partialRectangle;html=1;whiteSpace=wrap;connectable=0;overflow=hidden;top=0;left=0;bottom=0;right=0;pointerEvents=1;strokeOpacity=100;fillColor=none;fontSize=10;" vertex="1" parent="kaPdP8XmIXaBj53WBzwW-10">
          <mxGeometry x="30" width="60" height="40" as="geometry">
            <mxRectangle width="60" height="40" as="alternateBounds" />
          </mxGeometry>
        </mxCell>
        <mxCell id="kaPdP8XmIXaBj53WBzwW-12" value="W1" style="shape=partialRectangle;html=1;whiteSpace=wrap;connectable=0;strokeColor=inherit;overflow=hidden;fillColor=none;top=0;left=0;bottom=0;right=0;pointerEvents=1;fontSize=10;" vertex="1" parent="kaPdP8XmIXaBj53WBzwW-10">
          <mxGeometry x="90" width="60" height="40" as="geometry">
            <mxRectangle width="60" height="40" as="alternateBounds" />
          </mxGeometry>
        </mxCell>
        <mxCell id="kaPdP8XmIXaBj53WBzwW-13" value="W3" style="shape=partialRectangle;html=1;whiteSpace=wrap;connectable=0;strokeColor=inherit;overflow=hidden;fillColor=none;top=0;left=0;bottom=0;right=0;pointerEvents=1;fontSize=10;" vertex="1" parent="kaPdP8XmIXaBj53WBzwW-10">
          <mxGeometry x="150" width="60" height="40" as="geometry">
            <mxRectangle width="60" height="40" as="alternateBounds" />
          </mxGeometry>
        </mxCell>
        <mxCell id="kaPdP8XmIXaBj53WBzwW-14" value="M3" style="shape=tableRow;horizontal=0;startSize=30;swimlaneHead=0;swimlaneBody=0;strokeColor=inherit;top=0;left=0;bottom=0;right=0;collapsible=0;dropTarget=0;fillColor=none;points=[[0,0.5],[1,0.5]];portConstraint=eastwest;fontSize=10;" vertex="1" parent="kaPdP8XmIXaBj53WBzwW-1">
          <mxGeometry y="141" width="210" height="40" as="geometry" />
        </mxCell>
        <mxCell id="kaPdP8XmIXaBj53WBzwW-15" value="W2" style="shape=partialRectangle;html=1;whiteSpace=wrap;connectable=0;overflow=hidden;top=0;left=0;bottom=0;right=0;pointerEvents=1;fillColor=none;fontSize=10;" vertex="1" parent="kaPdP8XmIXaBj53WBzwW-14">
          <mxGeometry x="30" width="60" height="40" as="geometry">
            <mxRectangle width="60" height="40" as="alternateBounds" />
          </mxGeometry>
        </mxCell>
        <mxCell id="kaPdP8XmIXaBj53WBzwW-16" value="W1" style="shape=partialRectangle;html=1;whiteSpace=wrap;connectable=0;overflow=hidden;top=0;left=0;bottom=0;right=0;pointerEvents=1;fillColor=none;fontSize=10;" vertex="1" parent="kaPdP8XmIXaBj53WBzwW-14">
          <mxGeometry x="90" width="60" height="40" as="geometry">
            <mxRectangle width="60" height="40" as="alternateBounds" />
          </mxGeometry>
        </mxCell>
        <mxCell id="kaPdP8XmIXaBj53WBzwW-17" value="W3" style="shape=partialRectangle;html=1;whiteSpace=wrap;connectable=0;strokeColor=inherit;overflow=hidden;fillColor=none;top=0;left=0;bottom=0;right=0;pointerEvents=1;fontSize=10;" vertex="1" parent="kaPdP8XmIXaBj53WBzwW-14">
          <mxGeometry x="150" width="60" height="40" as="geometry">
            <mxRectangle width="60" height="40" as="alternateBounds" />
          </mxGeometry>
        </mxCell>
        <mxCell id="kaPdP8XmIXaBj53WBzwW-24" value="Women&#39;s Rank Matrix" style="shape=table;startSize=30;container=1;collapsible=0;childLayout=tableLayout;resizeLast=0;resizeLastRow=0;fontStyle=0;fontSize=10;" vertex="1" parent="1">
          <mxGeometry x="617" y="40.5" width="210" height="180" as="geometry" />
        </mxCell>
        <mxCell id="kaPdP8XmIXaBj53WBzwW-25" value="" style="shape=tableRow;horizontal=0;startSize=30;swimlaneHead=0;swimlaneBody=0;strokeColor=inherit;top=0;left=0;bottom=0;right=0;collapsible=0;dropTarget=0;fillColor=none;points=[[0,0.5],[1,0.5]];portConstraint=eastwest;fontSize=10;" vertex="1" parent="kaPdP8XmIXaBj53WBzwW-24">
          <mxGeometry y="30" width="210" height="30" as="geometry" />
        </mxCell>
        <mxCell id="kaPdP8XmIXaBj53WBzwW-26" value="M1" style="shape=partialRectangle;html=1;whiteSpace=wrap;connectable=0;strokeColor=inherit;overflow=hidden;fillColor=none;top=0;left=0;bottom=0;right=0;pointerEvents=1;fontSize=10;" vertex="1" parent="kaPdP8XmIXaBj53WBzwW-25">
          <mxGeometry x="30" width="60" height="30" as="geometry">
            <mxRectangle width="60" height="30" as="alternateBounds" />
          </mxGeometry>
        </mxCell>
        <mxCell id="kaPdP8XmIXaBj53WBzwW-27" value="M2" style="shape=partialRectangle;html=1;whiteSpace=wrap;connectable=0;strokeColor=inherit;overflow=hidden;fillColor=none;top=0;left=0;bottom=0;right=0;pointerEvents=1;fontSize=10;" vertex="1" parent="kaPdP8XmIXaBj53WBzwW-25">
          <mxGeometry x="90" width="60" height="30" as="geometry">
            <mxRectangle width="60" height="30" as="alternateBounds" />
          </mxGeometry>
        </mxCell>
        <mxCell id="kaPdP8XmIXaBj53WBzwW-28" value="M3" style="shape=partialRectangle;html=1;whiteSpace=wrap;connectable=0;strokeColor=inherit;overflow=hidden;fillColor=none;top=0;left=0;bottom=0;right=0;pointerEvents=1;strokeWidth=1;resizeWidth=1;resizeHeight=1;fontSize=10;" vertex="1" parent="kaPdP8XmIXaBj53WBzwW-25">
          <mxGeometry x="150" width="60" height="30" as="geometry">
            <mxRectangle width="60" height="30" as="alternateBounds" />
          </mxGeometry>
        </mxCell>
        <mxCell id="kaPdP8XmIXaBj53WBzwW-29" value="W1" style="shape=tableRow;horizontal=0;startSize=30;swimlaneHead=0;swimlaneBody=0;strokeColor=inherit;top=0;left=0;bottom=0;right=0;collapsible=0;dropTarget=0;fillColor=none;points=[[0,0.5],[1,0.5]];portConstraint=eastwest;fontSize=10;" vertex="1" parent="kaPdP8XmIXaBj53WBzwW-24">
          <mxGeometry y="60" width="210" height="40" as="geometry" />
        </mxCell>
        <mxCell id="kaPdP8XmIXaBj53WBzwW-30" value="Rank3" style="shape=partialRectangle;html=1;whiteSpace=wrap;connectable=0;strokeColor=inherit;overflow=hidden;fillColor=none;top=0;left=0;bottom=0;right=0;pointerEvents=1;fontSize=10;" vertex="1" parent="kaPdP8XmIXaBj53WBzwW-29">
          <mxGeometry x="30" width="60" height="40" as="geometry">
            <mxRectangle width="60" height="40" as="alternateBounds" />
          </mxGeometry>
        </mxCell>
        <mxCell id="kaPdP8XmIXaBj53WBzwW-31" value="Rank2" style="shape=partialRectangle;html=1;whiteSpace=wrap;connectable=0;strokeColor=inherit;overflow=hidden;fillColor=none;top=0;left=0;bottom=0;right=0;pointerEvents=1;fontSize=10;" vertex="1" parent="kaPdP8XmIXaBj53WBzwW-29">
          <mxGeometry x="90" width="60" height="40" as="geometry">
            <mxRectangle width="60" height="40" as="alternateBounds" />
          </mxGeometry>
        </mxCell>
        <mxCell id="kaPdP8XmIXaBj53WBzwW-32" value="Rank1" style="shape=partialRectangle;html=1;whiteSpace=wrap;connectable=0;strokeColor=inherit;overflow=hidden;fillColor=none;top=0;left=0;bottom=0;right=0;pointerEvents=1;fontSize=10;" vertex="1" parent="kaPdP8XmIXaBj53WBzwW-29">
          <mxGeometry x="150" width="60" height="40" as="geometry">
            <mxRectangle width="60" height="40" as="alternateBounds" />
          </mxGeometry>
        </mxCell>
        <mxCell id="kaPdP8XmIXaBj53WBzwW-33" value="W2" style="shape=tableRow;horizontal=0;startSize=30;swimlaneHead=0;swimlaneBody=0;strokeColor=inherit;top=0;left=0;bottom=0;right=0;collapsible=0;dropTarget=0;fillColor=none;points=[[0,0.5],[1,0.5]];portConstraint=eastwest;fontSize=10;" vertex="1" parent="kaPdP8XmIXaBj53WBzwW-24">
          <mxGeometry y="100" width="210" height="40" as="geometry" />
        </mxCell>
        <mxCell id="kaPdP8XmIXaBj53WBzwW-34" value="Rank2" style="shape=partialRectangle;html=1;whiteSpace=wrap;connectable=0;strokeColor=inherit;overflow=hidden;fillColor=none;top=0;left=0;bottom=0;right=0;pointerEvents=1;fontSize=10;" vertex="1" parent="kaPdP8XmIXaBj53WBzwW-33">
          <mxGeometry x="30" width="60" height="40" as="geometry">
            <mxRectangle width="60" height="40" as="alternateBounds" />
          </mxGeometry>
        </mxCell>
        <mxCell id="kaPdP8XmIXaBj53WBzwW-35" value="Rank1" style="shape=partialRectangle;html=1;whiteSpace=wrap;connectable=0;strokeColor=inherit;overflow=hidden;fillColor=none;top=0;left=0;bottom=0;right=0;pointerEvents=1;fontSize=10;" vertex="1" parent="kaPdP8XmIXaBj53WBzwW-33">
          <mxGeometry x="90" width="60" height="40" as="geometry">
            <mxRectangle width="60" height="40" as="alternateBounds" />
          </mxGeometry>
        </mxCell>
        <mxCell id="kaPdP8XmIXaBj53WBzwW-36" value="Rank3" style="shape=partialRectangle;html=1;whiteSpace=wrap;connectable=0;strokeColor=inherit;overflow=hidden;fillColor=none;top=0;left=0;bottom=0;right=0;pointerEvents=1;fontSize=10;" vertex="1" parent="kaPdP8XmIXaBj53WBzwW-33">
          <mxGeometry x="150" width="60" height="40" as="geometry">
            <mxRectangle width="60" height="40" as="alternateBounds" />
          </mxGeometry>
        </mxCell>
        <mxCell id="kaPdP8XmIXaBj53WBzwW-37" value="W3" style="shape=tableRow;horizontal=0;startSize=30;swimlaneHead=0;swimlaneBody=0;strokeColor=inherit;top=0;left=0;bottom=0;right=0;collapsible=0;dropTarget=0;fillColor=none;points=[[0,0.5],[1,0.5]];portConstraint=eastwest;fontSize=10;" vertex="1" parent="kaPdP8XmIXaBj53WBzwW-24">
          <mxGeometry y="140" width="210" height="40" as="geometry" />
        </mxCell>
        <mxCell id="kaPdP8XmIXaBj53WBzwW-38" value="Rank1" style="shape=partialRectangle;html=1;whiteSpace=wrap;connectable=0;strokeColor=inherit;overflow=hidden;fillColor=none;top=0;left=0;bottom=0;right=0;pointerEvents=1;fontSize=10;" vertex="1" parent="kaPdP8XmIXaBj53WBzwW-37">
          <mxGeometry x="30" width="60" height="40" as="geometry">
            <mxRectangle width="60" height="40" as="alternateBounds" />
          </mxGeometry>
        </mxCell>
        <mxCell id="kaPdP8XmIXaBj53WBzwW-39" value="Rank3" style="shape=partialRectangle;html=1;whiteSpace=wrap;connectable=0;strokeColor=inherit;overflow=hidden;fillColor=none;top=0;left=0;bottom=0;right=0;pointerEvents=1;fontSize=10;" vertex="1" parent="kaPdP8XmIXaBj53WBzwW-37">
          <mxGeometry x="90" width="60" height="40" as="geometry">
            <mxRectangle width="60" height="40" as="alternateBounds" />
          </mxGeometry>
        </mxCell>
        <mxCell id="kaPdP8XmIXaBj53WBzwW-40" value="Rank2" style="shape=partialRectangle;html=1;whiteSpace=wrap;connectable=0;strokeColor=inherit;overflow=hidden;fillColor=none;top=0;left=0;bottom=0;right=0;pointerEvents=1;fontSize=10;" vertex="1" parent="kaPdP8XmIXaBj53WBzwW-37">
          <mxGeometry x="150" width="60" height="40" as="geometry">
            <mxRectangle width="60" height="40" as="alternateBounds" />
          </mxGeometry>
        </mxCell>
        <mxCell id="kaPdP8XmIXaBj53WBzwW-47" value="PRMatrixM" style="shape=table;startSize=30;container=1;collapsible=0;childLayout=tableLayout;resizeLast=0;resizeLastRow=0;fontStyle=1;fontSize=10;" vertex="1" parent="1">
          <mxGeometry x="330" y="40" width="210" height="180.5" as="geometry" />
        </mxCell>
        <mxCell id="kaPdP8XmIXaBj53WBzwW-48" value="" style="shape=tableRow;horizontal=0;startSize=30;swimlaneHead=0;swimlaneBody=0;strokeColor=inherit;top=0;left=0;bottom=0;right=0;collapsible=0;dropTarget=0;fillColor=none;points=[[0,0.5],[1,0.5]];portConstraint=eastwest;fontSize=10;" vertex="1" parent="kaPdP8XmIXaBj53WBzwW-47">
          <mxGeometry y="30" width="210" height="31" as="geometry" />
        </mxCell>
        <mxCell id="kaPdP8XmIXaBj53WBzwW-49" value="Rank1" style="shape=partialRectangle;html=1;whiteSpace=wrap;connectable=0;strokeColor=inherit;overflow=hidden;fillColor=none;top=0;left=0;bottom=0;right=0;pointerEvents=1;fontSize=10;" vertex="1" parent="kaPdP8XmIXaBj53WBzwW-48">
          <mxGeometry x="30" width="60" height="31" as="geometry">
            <mxRectangle width="60" height="31" as="alternateBounds" />
          </mxGeometry>
        </mxCell>
        <mxCell id="kaPdP8XmIXaBj53WBzwW-50" value="Rank2" style="shape=partialRectangle;html=1;whiteSpace=wrap;connectable=0;strokeColor=inherit;overflow=hidden;fillColor=none;top=0;left=0;bottom=0;right=0;pointerEvents=1;fontSize=10;" vertex="1" parent="kaPdP8XmIXaBj53WBzwW-48">
          <mxGeometry x="90" width="60" height="31" as="geometry">
            <mxRectangle width="60" height="31" as="alternateBounds" />
          </mxGeometry>
        </mxCell>
        <mxCell id="kaPdP8XmIXaBj53WBzwW-51" value="Rank3" style="shape=partialRectangle;html=1;whiteSpace=wrap;connectable=0;strokeColor=inherit;overflow=hidden;fillColor=none;top=0;left=0;bottom=0;right=0;pointerEvents=1;strokeWidth=1;resizeWidth=1;resizeHeight=1;fontSize=10;" vertex="1" parent="kaPdP8XmIXaBj53WBzwW-48">
          <mxGeometry x="150" width="60" height="31" as="geometry">
            <mxRectangle width="60" height="31" as="alternateBounds" />
          </mxGeometry>
        </mxCell>
        <mxCell id="kaPdP8XmIXaBj53WBzwW-52" value="M1" style="shape=tableRow;horizontal=0;startSize=30;swimlaneHead=0;swimlaneBody=0;strokeColor=inherit;top=0;left=0;bottom=0;right=0;collapsible=0;dropTarget=0;fillColor=none;points=[[0,0.5],[1,0.5]];portConstraint=eastwest;fontSize=10;" vertex="1" parent="kaPdP8XmIXaBj53WBzwW-47">
          <mxGeometry y="61" width="210" height="40" as="geometry" />
        </mxCell>
        <mxCell id="kaPdP8XmIXaBj53WBzwW-53" value="W2, Rank2" style="shape=partialRectangle;html=1;whiteSpace=wrap;connectable=0;overflow=hidden;top=0;left=0;bottom=0;right=0;pointerEvents=1;strokeColor=default;fillColor=none;fontSize=10;" vertex="1" parent="kaPdP8XmIXaBj53WBzwW-52">
          <mxGeometry x="30" width="60" height="40" as="geometry">
            <mxRectangle width="60" height="40" as="alternateBounds" />
          </mxGeometry>
        </mxCell>
        <mxCell id="kaPdP8XmIXaBj53WBzwW-54" value="W1, Rank3" style="shape=partialRectangle;html=1;whiteSpace=wrap;connectable=0;overflow=hidden;top=0;left=0;bottom=0;right=0;pointerEvents=1;fillColor=none;labelBackgroundColor=none;labelBorderColor=none;strokeColor=default;shadow=0;resizable=1;resizeWidth=0;metaEdit=0;backgroundOutline=0;fontSize=10;" vertex="1" parent="kaPdP8XmIXaBj53WBzwW-52">
          <mxGeometry x="90" width="60" height="40" as="geometry">
            <mxRectangle width="60" height="40" as="alternateBounds" />
          </mxGeometry>
        </mxCell>
        <mxCell id="kaPdP8XmIXaBj53WBzwW-55" value="W3, Rank1" style="shape=partialRectangle;html=1;whiteSpace=wrap;connectable=0;overflow=hidden;top=0;left=0;bottom=0;right=0;pointerEvents=1;fillColor=none;fontSize=10;" vertex="1" parent="kaPdP8XmIXaBj53WBzwW-52">
          <mxGeometry x="150" width="60" height="40" as="geometry">
            <mxRectangle width="60" height="40" as="alternateBounds" />
          </mxGeometry>
        </mxCell>
        <mxCell id="kaPdP8XmIXaBj53WBzwW-56" value="M2" style="shape=tableRow;horizontal=0;startSize=30;swimlaneHead=0;swimlaneBody=0;strokeColor=inherit;top=0;left=0;bottom=0;right=0;collapsible=0;dropTarget=0;fillColor=none;points=[[0,0.5],[1,0.5]];portConstraint=eastwest;fontSize=10;" vertex="1" parent="kaPdP8XmIXaBj53WBzwW-47">
          <mxGeometry y="101" width="210" height="40" as="geometry" />
        </mxCell>
        <mxCell id="kaPdP8XmIXaBj53WBzwW-57" value="W2, Rank1" style="shape=partialRectangle;html=1;whiteSpace=wrap;connectable=0;overflow=hidden;top=0;left=0;bottom=0;right=0;pointerEvents=1;strokeOpacity=100;fillColor=none;fontSize=10;" vertex="1" parent="kaPdP8XmIXaBj53WBzwW-56">
          <mxGeometry x="30" width="60" height="40" as="geometry">
            <mxRectangle width="60" height="40" as="alternateBounds" />
          </mxGeometry>
        </mxCell>
        <mxCell id="kaPdP8XmIXaBj53WBzwW-58" value="W1, Rank2" style="shape=partialRectangle;html=1;whiteSpace=wrap;connectable=0;strokeColor=inherit;overflow=hidden;fillColor=none;top=0;left=0;bottom=0;right=0;pointerEvents=1;fontSize=10;" vertex="1" parent="kaPdP8XmIXaBj53WBzwW-56">
          <mxGeometry x="90" width="60" height="40" as="geometry">
            <mxRectangle width="60" height="40" as="alternateBounds" />
          </mxGeometry>
        </mxCell>
        <mxCell id="kaPdP8XmIXaBj53WBzwW-59" value="W3, Rank3" style="shape=partialRectangle;html=1;whiteSpace=wrap;connectable=0;strokeColor=inherit;overflow=hidden;fillColor=none;top=0;left=0;bottom=0;right=0;pointerEvents=1;fontSize=10;" vertex="1" parent="kaPdP8XmIXaBj53WBzwW-56">
          <mxGeometry x="150" width="60" height="40" as="geometry">
            <mxRectangle width="60" height="40" as="alternateBounds" />
          </mxGeometry>
        </mxCell>
        <mxCell id="kaPdP8XmIXaBj53WBzwW-60" value="M3" style="shape=tableRow;horizontal=0;startSize=30;swimlaneHead=0;swimlaneBody=0;strokeColor=inherit;top=0;left=0;bottom=0;right=0;collapsible=0;dropTarget=0;fillColor=none;points=[[0,0.5],[1,0.5]];portConstraint=eastwest;fontSize=10;" vertex="1" parent="kaPdP8XmIXaBj53WBzwW-47">
          <mxGeometry y="141" width="210" height="40" as="geometry" />
        </mxCell>
        <mxCell id="kaPdP8XmIXaBj53WBzwW-61" value="W2, Rank3" style="shape=partialRectangle;html=1;whiteSpace=wrap;connectable=0;overflow=hidden;top=0;left=0;bottom=0;right=0;pointerEvents=1;fillColor=none;fontSize=10;" vertex="1" parent="kaPdP8XmIXaBj53WBzwW-60">
          <mxGeometry x="30" width="60" height="40" as="geometry">
            <mxRectangle width="60" height="40" as="alternateBounds" />
          </mxGeometry>
        </mxCell>
        <mxCell id="kaPdP8XmIXaBj53WBzwW-62" value="W1, Rank1" style="shape=partialRectangle;html=1;whiteSpace=wrap;connectable=0;overflow=hidden;top=0;left=0;bottom=0;right=0;pointerEvents=1;fillColor=none;fontSize=10;" vertex="1" parent="kaPdP8XmIXaBj53WBzwW-60">
          <mxGeometry x="90" width="60" height="40" as="geometry">
            <mxRectangle width="60" height="40" as="alternateBounds" />
          </mxGeometry>
        </mxCell>
        <mxCell id="kaPdP8XmIXaBj53WBzwW-63" value="W3, Rank2" style="shape=partialRectangle;html=1;whiteSpace=wrap;connectable=0;strokeColor=inherit;overflow=hidden;fillColor=none;top=0;left=0;bottom=0;right=0;pointerEvents=1;fontSize=10;" vertex="1" parent="kaPdP8XmIXaBj53WBzwW-60">
          <mxGeometry x="150" width="60" height="40" as="geometry">
            <mxRectangle width="60" height="40" as="alternateBounds" />
          </mxGeometry>
        </mxCell>
        <mxCell id="kaPdP8XmIXaBj53WBzwW-64" value="" style="whiteSpace=wrap;html=1;fillColor=none;strokeWidth=3;strokeColor=#000000;" vertex="1" parent="1">
          <mxGeometry x="90" y="109" width="20" height="25" as="geometry" />
        </mxCell>
        <mxCell id="kaPdP8XmIXaBj53WBzwW-65" value="" style="whiteSpace=wrap;html=1;fillColor=none;strokeWidth=3;strokeColor=#000000;" vertex="1" parent="1">
          <mxGeometry x="90" y="149" width="20" height="25" as="geometry" />
        </mxCell>
        <mxCell id="kaPdP8XmIXaBj53WBzwW-66" value="" style="whiteSpace=wrap;html=1;fillColor=none;strokeWidth=3;strokeColor=#000000;" vertex="1" parent="1">
          <mxGeometry x="90" y="189" width="20" height="25" as="geometry" />
        </mxCell>
        <mxCell id="kaPdP8XmIXaBj53WBzwW-69" value="" style="ellipse;whiteSpace=wrap;html=1;fillColor=none;strokeWidth=4;" vertex="1" parent="1">
          <mxGeometry x="657" y="105.5" width="40" height="30" as="geometry" />
        </mxCell>
        <mxCell id="kaPdP8XmIXaBj53WBzwW-70" value="" style="ellipse;whiteSpace=wrap;html=1;fillColor=none;strokeWidth=4;" vertex="1" parent="1">
          <mxGeometry x="657" y="145.5" width="40" height="30" as="geometry" />
        </mxCell>
        <mxCell id="kaPdP8XmIXaBj53WBzwW-71" value="" style="ellipse;whiteSpace=wrap;html=1;fillColor=none;strokeWidth=4;" vertex="1" parent="1">
          <mxGeometry x="657" y="186.5" width="40" height="30" as="geometry" />
        </mxCell>
        <mxCell id="kaPdP8XmIXaBj53WBzwW-72" value="" style="whiteSpace=wrap;html=1;fillColor=none;strokeWidth=3;strokeColor=#000000;" vertex="1" parent="1">
          <mxGeometry x="363" y="109" width="20" height="25" as="geometry" />
        </mxCell>
        <mxCell id="kaPdP8XmIXaBj53WBzwW-73" value="" style="whiteSpace=wrap;html=1;fillColor=none;strokeWidth=3;strokeColor=#000000;" vertex="1" parent="1">
          <mxGeometry x="363" y="149" width="20" height="25" as="geometry" />
        </mxCell>
        <mxCell id="kaPdP8XmIXaBj53WBzwW-74" value="" style="whiteSpace=wrap;html=1;fillColor=none;strokeWidth=3;strokeColor=#000000;" vertex="1" parent="1">
          <mxGeometry x="363" y="189" width="20" height="25" as="geometry" />
        </mxCell>
        <mxCell id="kaPdP8XmIXaBj53WBzwW-75" value="" style="ellipse;whiteSpace=wrap;html=1;fillColor=none;strokeWidth=3;" vertex="1" parent="1">
          <mxGeometry x="383" y="107" width="35" height="30" as="geometry" />
        </mxCell>
        <mxCell id="kaPdP8XmIXaBj53WBzwW-76" value="" style="ellipse;whiteSpace=wrap;html=1;fillColor=none;strokeWidth=3;" vertex="1" parent="1">
          <mxGeometry x="383" y="146.5" width="35" height="30" as="geometry" />
        </mxCell>
        <mxCell id="kaPdP8XmIXaBj53WBzwW-77" value="" style="ellipse;whiteSpace=wrap;html=1;fillColor=none;strokeWidth=3;" vertex="1" parent="1">
          <mxGeometry x="383" y="186.5" width="35" height="30" as="geometry" />
        </mxCell>
      </root>
    </mxGraphModel>
  </diagram>
</mxfile>
